<svg width="137" height="31" viewBox="0 0 137 31" fill="none" xmlns="http://www.w3.org/2000/svg">
<path d="M2.6792 2.95605H8.83447C10.632 2.95605 12.1932 3.14941 13.5181 3.53613C14.8429 3.92285 15.9386 4.47786 16.8052 5.20117C17.6789 5.91732 18.327 6.79102 18.7495 7.82227C19.1792 8.84635 19.394 9.99935 19.394 11.2812C19.394 12.4987 19.1828 13.6266 18.7603 14.665C18.3377 15.6963 17.6932 16.5915 16.8267 17.3506C15.9601 18.1025 14.8644 18.6934 13.5396 19.123C12.2147 19.5456 10.6535 19.7568 8.85596 19.7568L2.6792 19.7461V2.95605ZM9.67236 16.8027C10.6893 16.8027 11.5809 16.6738 12.3472 16.416C13.1134 16.151 13.7508 15.7786 14.2593 15.2988C14.7749 14.819 15.1616 14.2389 15.4194 13.5586C15.6772 12.8783 15.8062 12.1191 15.8062 11.2812C15.8062 10.4577 15.6772 9.71647 15.4194 9.05762C15.1616 8.3916 14.7749 7.82943 14.2593 7.37109C13.7508 6.9056 13.1134 6.54753 12.3472 6.29688C11.5809 6.04622 10.6893 5.9209 9.67236 5.9209H6.08447V16.8027H9.67236ZM22.8101 2.95605H37.1079V5.94238H26.2153V9.29395H35.8618V12.0977H26.2153V16.7705H37.3335V19.7461H22.8101V2.95605ZM41.1147 2.95605H56.1323V5.94238H44.52V10.3359H54.3813V13.1396H44.52V19.7461H41.1147V2.95605ZM59.4194 2.95605H73.7173V5.94238H62.8247V9.29395H72.4712V12.0977H62.8247V16.7705H73.9429V19.7461H59.4194V2.95605ZM77.7026 2.95605H81.1079L91.5708 8.43457V2.95605H94.9761V19.7461H91.5708V12.0439L81.1079 6.59766V19.7461H77.7026V2.95605ZM98.7036 11.249C98.7036 10.0531 98.9292 8.93945 99.3804 7.9082C99.8315 6.86979 100.483 5.97103 101.335 5.21191C102.195 4.44564 103.24 3.84408 104.472 3.40723C105.711 2.97038 107.111 2.75195 108.672 2.75195C110.04 2.75195 111.293 2.8916 112.432 3.1709C113.578 3.44303 114.641 3.86198 115.623 4.42773L114.054 7.00586C113.761 6.8125 113.42 6.64062 113.034 6.49023C112.654 6.33984 112.246 6.21452 111.809 6.11426C111.379 6.00684 110.932 5.92448 110.466 5.86719C110.008 5.8099 109.553 5.78125 109.102 5.78125C108.014 5.78125 107.043 5.91732 106.191 6.18945C105.339 6.45443 104.619 6.8304 104.032 7.31738C103.452 7.7972 103.008 8.3737 102.7 9.04688C102.399 9.71289 102.249 10.4469 102.249 11.249C102.249 12.0798 102.406 12.8424 102.721 13.5371C103.036 14.2318 103.491 14.8333 104.085 15.3418C104.687 15.8431 105.417 16.237 106.277 16.5234C107.143 16.8027 108.121 16.9424 109.209 16.9424C109.704 16.9424 110.194 16.9066 110.681 16.835C111.168 16.7633 111.637 16.6667 112.088 16.5449C112.547 16.416 112.987 16.2656 113.41 16.0938C113.832 15.9147 114.226 15.7214 114.591 15.5137L116.16 18.0918C115.243 18.679 114.183 19.141 112.98 19.4775C111.777 19.807 110.499 19.9717 109.145 19.9717C107.419 19.9717 105.904 19.7497 104.601 19.3057C103.298 18.8545 102.209 18.2386 101.335 17.458C100.462 16.6702 99.8029 15.7464 99.3589 14.6865C98.922 13.6195 98.7036 12.4736 98.7036 11.249ZM119.919 2.95605H134.217V5.94238H123.325V9.29395H132.971V12.0977H123.325V16.7705H134.443V19.7461H119.919V2.95605Z" fill="white"/>
<path d="M8.68842 26.7618H7.32976C7.31165 26.6274 7.27451 26.5061 7.21835 26.3979C7.16219 26.2897 7.08792 26.1972 6.99553 26.1204C6.90314 26.0436 6.79354 25.9852 6.66674 25.945C6.54174 25.9032 6.40316 25.8822 6.25099 25.8822C5.98107 25.8822 5.74828 25.9459 5.55264 26.0733C5.3588 26.2007 5.20935 26.3848 5.10428 26.6257C5.00102 26.8665 4.94939 27.158 4.94939 27.5C4.94939 27.856 5.00193 28.1545 5.107 28.3953C5.21388 28.6344 5.36333 28.815 5.55535 28.9372C5.74919 29.0576 5.97835 29.1178 6.24284 29.1178C6.39138 29.1178 6.52634 29.0995 6.64772 29.0628C6.7709 29.0262 6.87869 28.973 6.97108 28.9032C7.06528 28.8316 7.14227 28.7452 7.20205 28.644C7.26364 28.541 7.30621 28.425 7.32976 28.2958L8.68842 28.3037C8.66487 28.541 8.59331 28.7749 8.47375 29.0052C8.356 29.2356 8.19387 29.4459 7.98735 29.6361C7.78084 29.8246 7.52903 29.9747 7.23194 30.0864C6.93666 30.1981 6.5979 30.2539 6.21566 30.2539C5.71205 30.2539 5.26098 30.1475 4.86244 29.9346C4.46571 29.7199 4.15231 29.4075 3.92225 28.9974C3.69218 28.5873 3.57715 28.0881 3.57715 27.5C3.57715 26.9101 3.69399 26.4101 3.92768 26C4.16137 25.5899 4.47749 25.2784 4.87603 25.0655C5.27457 24.8526 5.72111 24.7461 6.21566 24.7461C6.55261 24.7461 6.8642 24.7915 7.15042 24.8822C7.43664 24.9712 7.68845 25.1021 7.90583 25.2749C8.12322 25.4459 8.29984 25.6562 8.43571 25.9058C8.57158 26.1553 8.65581 26.4407 8.68842 26.7618Z" fill="url(#paint0_linear_2203_5475)"/>
<path d="M14.5373 24.8194H16.04L17.2166 27.0628H17.2655L18.4421 24.8194H19.9448L17.9095 28.3901V30.1806H16.5726V28.3901L14.5373 24.8194Z" fill="url(#paint1_linear_2203_5475)"/>
<path d="M25.865 30.1806V24.8194H28.1856C28.6022 24.8194 28.9509 24.8761 29.2317 24.9895C29.5143 25.103 29.7263 25.2618 29.8676 25.466C30.0107 25.6702 30.0823 25.9067 30.0823 26.1754C30.0823 26.3796 30.0379 26.562 29.9491 26.7225C29.8603 26.8813 29.7381 27.0131 29.5823 27.1178C29.4265 27.2225 29.2462 27.2958 29.0415 27.3377V27.3901C29.2662 27.4005 29.4736 27.459 29.6638 27.5655C29.8558 27.6719 30.0098 27.8203 30.1257 28.0105C30.2417 28.199 30.2996 28.4224 30.2996 28.6806C30.2996 28.9686 30.2236 29.226 30.0714 29.4529C29.9192 29.678 29.6991 29.856 29.4111 29.9869C29.123 30.1161 28.7734 30.1806 28.3622 30.1806H25.865ZM27.2101 29.1361H28.0416C28.3332 29.1361 28.5479 29.0829 28.6856 28.9765C28.825 28.87 28.8948 28.7217 28.8948 28.5314C28.8948 28.3936 28.8613 28.2749 28.7942 28.1754C28.7272 28.0742 28.6321 27.9965 28.5089 27.9424C28.3857 27.8866 28.2381 27.8587 28.066 27.8587H27.2101V29.1361ZM27.2101 27.0236H27.9546C28.1013 27.0236 28.2318 27 28.3459 26.9529C28.46 26.9058 28.5488 26.8377 28.6122 26.7487C28.6774 26.6597 28.71 26.5524 28.71 26.4267C28.71 26.247 28.6439 26.1056 28.5116 26.0026C28.3794 25.8997 28.201 25.8482 27.9763 25.8482H27.2101V27.0236Z" fill="url(#paint2_linear_2203_5475)"/>
<path d="M36.3027 30.1806V24.8194H40.1831V25.8717H37.6478V26.9712H39.9847V28.0262H37.6478V29.1283H40.1831V30.1806H36.3027Z" fill="url(#paint3_linear_2203_5475)"/>
<path d="M46.3818 30.1806V24.8194H48.6806C49.0973 24.8194 49.4569 24.8918 49.7594 25.0367C50.0638 25.1798 50.2984 25.3857 50.4632 25.6545C50.6281 25.9215 50.7105 26.2382 50.7105 26.6047C50.7105 26.9765 50.6262 27.2923 50.4578 27.5524C50.2893 27.8107 50.0502 28.0079 49.7404 28.144C49.4306 28.2784 49.0638 28.3456 48.6399 28.3456H47.1861V27.3246H48.3899C48.5928 27.3246 48.7622 27.2993 48.898 27.2487C49.0357 27.1964 49.1399 27.1178 49.2105 27.0131C49.2812 26.9066 49.3165 26.7705 49.3165 26.6047C49.3165 26.4389 49.2812 26.3019 49.2105 26.1937C49.1399 26.0838 49.0357 26.0018 48.898 25.9477C48.7604 25.8918 48.591 25.8639 48.3899 25.8639H47.7269V30.1806H46.3818ZM49.5149 27.7304L50.9007 30.1806H49.4333L48.0747 27.7304H49.5149Z" fill="url(#paint4_linear_2203_5475)"/>
<path d="M59.8127 26.4267C59.7946 26.2347 59.7139 26.0855 59.5708 25.9791C59.4295 25.8709 59.2276 25.8168 58.9649 25.8168C58.791 25.8168 58.646 25.8386 58.5301 25.8822C58.4142 25.9258 58.3272 25.9861 58.2692 26.0628C58.2113 26.1379 58.1814 26.2243 58.1796 26.322C58.1759 26.4023 58.1922 26.473 58.2285 26.534C58.2665 26.5951 58.3209 26.6492 58.3915 26.6964C58.464 26.7417 58.5509 26.7819 58.6524 26.8168C58.7538 26.8517 58.868 26.8822 58.9948 26.9084L59.473 27.0131C59.7484 27.0707 59.9911 27.1475 60.2013 27.2435C60.4132 27.3395 60.5907 27.4538 60.7338 27.5864C60.8788 27.719 60.9884 27.8717 61.0626 28.0445C61.1369 28.2173 61.175 28.411 61.1768 28.6257C61.175 28.9642 61.0862 29.2548 60.9105 29.4974C60.7348 29.74 60.482 29.9258 60.1523 30.055C59.8245 30.1841 59.4286 30.2487 58.9649 30.2487C58.4993 30.2487 58.0935 30.1815 57.7475 30.0471C57.4015 29.9128 57.1325 29.7086 56.9405 29.4346C56.7484 29.1606 56.6497 28.8141 56.6443 28.3953H57.9323C57.9432 28.5681 57.9912 28.7121 58.0763 28.8272C58.1615 28.9424 58.2783 29.0297 58.4268 29.089C58.5772 29.1484 58.7511 29.178 58.9486 29.178C59.1297 29.178 59.2837 29.1545 59.4105 29.1073C59.5391 29.0602 59.6379 28.9948 59.7067 28.911C59.7755 28.8272 59.8109 28.7313 59.8127 28.6231C59.8109 28.5218 59.7783 28.4354 59.7149 28.3639C59.6514 28.2906 59.5536 28.2278 59.4214 28.1754C59.2909 28.1213 59.1243 28.0716 58.9214 28.0262L58.3399 27.8953C57.858 27.7888 57.4785 27.6169 57.2013 27.3796C56.9242 27.1405 56.7865 26.8176 56.7883 26.411C56.7865 26.0794 56.8789 25.7888 57.0655 25.5393C57.2521 25.2897 57.5102 25.0951 57.8399 24.9555C58.1696 24.8159 58.5455 24.7461 58.9676 24.7461C59.3987 24.7461 59.7728 24.8168 60.0898 24.9581C60.4087 25.0978 60.656 25.2941 60.8317 25.5471C61.0074 25.8002 61.0971 26.0934 61.1007 26.4267H59.8127Z" fill="url(#paint5_linear_2203_5475)"/>
<path d="M67.2125 30.1806V24.8194H71.0928V25.8717H68.5575V26.9712H70.8944V28.0262H68.5575V29.1283H71.0928V30.1806H67.2125Z" fill="url(#paint6_linear_2203_5475)"/>
<path d="M82.343 26.7618H80.9844C80.9663 26.6274 80.9291 26.5061 80.873 26.3979C80.8168 26.2897 80.7425 26.1972 80.6501 26.1204C80.5578 26.0436 80.4482 25.9852 80.3214 25.945C80.1964 25.9032 80.0578 25.8822 79.9056 25.8822C79.6357 25.8822 79.4029 25.9459 79.2073 26.0733C79.0134 26.2007 78.864 26.3848 78.7589 26.6257C78.6556 26.8665 78.604 27.158 78.604 27.5C78.604 27.856 78.6565 28.1545 78.7616 28.3953C78.8685 28.6344 79.0179 28.815 79.21 28.9372C79.4038 29.0576 79.633 29.1178 79.8974 29.1178C80.046 29.1178 80.181 29.0995 80.3023 29.0628C80.4255 29.0262 80.5333 28.973 80.6257 28.9032C80.7199 28.8316 80.7969 28.7452 80.8567 28.644C80.9183 28.541 80.9608 28.425 80.9844 28.2958L82.343 28.3037C82.3195 28.541 82.2479 28.7749 82.1284 29.0052C82.0106 29.2356 81.8485 29.4459 81.642 29.6361C81.4354 29.8246 81.1836 29.9747 80.8866 30.0864C80.5913 30.1981 80.2525 30.2539 79.8703 30.2539C79.3667 30.2539 78.9156 30.1475 78.5171 29.9346C78.1203 29.7199 77.8069 29.4075 77.5769 28.9974C77.3468 28.5873 77.2318 28.0881 77.2318 27.5C77.2318 26.9101 77.3486 26.4101 77.5823 26C77.816 25.5899 78.1321 25.2784 78.5306 25.0655C78.9292 24.8526 79.3757 24.7461 79.8703 24.7461C80.2072 24.7461 80.5188 24.7915 80.805 24.8822C81.0913 24.9712 81.3431 25.1021 81.5604 25.2749C81.7778 25.4459 81.9545 25.6562 82.0903 25.9058C82.2262 26.1553 82.3104 26.4407 82.343 26.7618Z" fill="url(#paint7_linear_2203_5475)"/>
<path d="M91.8358 24.8194H93.1782V28.2775C93.1782 28.6772 93.0795 29.0253 92.882 29.322C92.6845 29.6169 92.4092 29.8456 92.0559 30.0079C91.7027 30.1684 91.2924 30.2487 90.825 30.2487C90.3522 30.2487 89.9391 30.1684 89.5859 30.0079C89.2326 29.8456 88.9582 29.6169 88.7626 29.322C88.5669 29.0253 88.4691 28.6772 88.4691 28.2775V24.8194H89.8142V28.1649C89.8142 28.3499 89.8558 28.5148 89.9391 28.6597C90.0243 28.8046 90.1429 28.918 90.2951 29C90.4473 29.082 90.6239 29.123 90.825 29.123C91.0261 29.123 91.2018 29.082 91.3522 29C91.5043 28.918 91.623 28.8046 91.7081 28.6597C91.7933 28.5148 91.8358 28.3499 91.8358 28.1649V24.8194Z" fill="url(#paint8_linear_2203_5475)"/>
<path d="M99.3776 30.1806V24.8194H101.676C102.093 24.8194 102.453 24.8918 102.755 25.0367C103.06 25.1798 103.294 25.3857 103.459 25.6545C103.624 25.9215 103.706 26.2382 103.706 26.6047C103.706 26.9765 103.622 27.2923 103.454 27.5524C103.285 27.8107 103.046 28.0079 102.736 28.144C102.426 28.2784 102.06 28.3456 101.636 28.3456H100.182V27.3246H101.386C101.589 27.3246 101.758 27.2993 101.894 27.2487C102.032 27.1964 102.136 27.1178 102.206 27.0131C102.277 26.9066 102.312 26.7705 102.312 26.6047C102.312 26.4389 102.277 26.3019 102.206 26.1937C102.136 26.0838 102.032 26.0018 101.894 25.9477C101.756 25.8918 101.587 25.8639 101.386 25.8639H100.723V30.1806H99.3776ZM102.511 27.7304L103.896 30.1806H102.429L101.071 27.7304H102.511Z" fill="url(#paint9_linear_2203_5475)"/>
<path d="M111.145 24.8194V30.1806H109.8V24.8194H111.145Z" fill="url(#paint10_linear_2203_5475)"/>
<path d="M117.164 25.8717V24.8194H121.868V25.8717H120.18V30.1806H118.854V25.8717H117.164Z" fill="url(#paint11_linear_2203_5475)"/>
<path d="M127.604 24.8194H129.107L130.283 27.0628H130.332L131.509 24.8194H133.011L130.976 28.3901V30.1806H129.639V28.3901L127.604 24.8194Z" fill="url(#paint12_linear_2203_5475)"/>
<defs>
<linearGradient id="paint0_linear_2203_5475" x1="144.839" y1="22.1387" x2="142.679" y2="54.4464" gradientUnits="userSpaceOnUse">
<stop stop-color="#00FFDD"/>
<stop offset="1" stop-color="#00D4FF"/>
</linearGradient>
<linearGradient id="paint1_linear_2203_5475" x1="144.839" y1="22.1387" x2="142.679" y2="54.4464" gradientUnits="userSpaceOnUse">
<stop stop-color="#00FFDD"/>
<stop offset="1" stop-color="#00D4FF"/>
</linearGradient>
<linearGradient id="paint2_linear_2203_5475" x1="144.839" y1="22.1387" x2="142.679" y2="54.4464" gradientUnits="userSpaceOnUse">
<stop stop-color="#00FFDD"/>
<stop offset="1" stop-color="#00D4FF"/>
</linearGradient>
<linearGradient id="paint3_linear_2203_5475" x1="144.839" y1="22.1387" x2="142.679" y2="54.4464" gradientUnits="userSpaceOnUse">
<stop stop-color="#00FFDD"/>
<stop offset="1" stop-color="#00D4FF"/>
</linearGradient>
<linearGradient id="paint4_linear_2203_5475" x1="144.839" y1="22.1387" x2="142.679" y2="54.4464" gradientUnits="userSpaceOnUse">
<stop stop-color="#00FFDD"/>
<stop offset="1" stop-color="#00D4FF"/>
</linearGradient>
<linearGradient id="paint5_linear_2203_5475" x1="144.839" y1="22.1387" x2="142.679" y2="54.4464" gradientUnits="userSpaceOnUse">
<stop stop-color="#00FFDD"/>
<stop offset="1" stop-color="#00D4FF"/>
</linearGradient>
<linearGradient id="paint6_linear_2203_5475" x1="144.839" y1="22.1387" x2="142.679" y2="54.4464" gradientUnits="userSpaceOnUse">
<stop stop-color="#00FFDD"/>
<stop offset="1" stop-color="#00D4FF"/>
</linearGradient>
<linearGradient id="paint7_linear_2203_5475" x1="144.839" y1="22.1387" x2="142.679" y2="54.4464" gradientUnits="userSpaceOnUse">
<stop stop-color="#00FFDD"/>
<stop offset="1" stop-color="#00D4FF"/>
</linearGradient>
<linearGradient id="paint8_linear_2203_5475" x1="144.839" y1="22.1387" x2="142.679" y2="54.4464" gradientUnits="userSpaceOnUse">
<stop stop-color="#00FFDD"/>
<stop offset="1" stop-color="#00D4FF"/>
</linearGradient>
<linearGradient id="paint9_linear_2203_5475" x1="144.839" y1="22.1387" x2="142.679" y2="54.4464" gradientUnits="userSpaceOnUse">
<stop stop-color="#00FFDD"/>
<stop offset="1" stop-color="#00D4FF"/>
</linearGradient>
<linearGradient id="paint10_linear_2203_5475" x1="144.839" y1="22.1387" x2="142.679" y2="54.4464" gradientUnits="userSpaceOnUse">
<stop stop-color="#00FFDD"/>
<stop offset="1" stop-color="#00D4FF"/>
</linearGradient>
<linearGradient id="paint11_linear_2203_5475" x1="144.839" y1="22.1387" x2="142.679" y2="54.4464" gradientUnits="userSpaceOnUse">
<stop stop-color="#00FFDD"/>
<stop offset="1" stop-color="#00D4FF"/>
</linearGradient>
<linearGradient id="paint12_linear_2203_5475" x1="144.839" y1="22.1387" x2="142.679" y2="54.4464" gradientUnits="userSpaceOnUse">
<stop stop-color="#00FFDD"/>
<stop offset="1" stop-color="#00D4FF"/>
</linearGradient>
</defs>
</svg>
