<svg width="40" height="40" viewBox="0 0 40 40" fill="none" xmlns="http://www.w3.org/2000/svg">
<g clip-path="url(#clip0_1_3323)">
<path d="M1.66656 13.3334C2.5882 13.3334 3.33344 12.5882 3.33344 11.6666V5C3.33344 4.0799 4.0799 3.33344 5 3.33344H11.6666C12.5882 3.33344 13.3334 2.5882 13.3334 1.66656C13.3334 0.744934 12.5882 0 11.6666 0H5C2.24335 0 0 2.24335 0 5V11.6666C0 12.5882 0.744934 13.3334 1.66656 13.3334Z" fill="black"/>
<path d="M38.3334 26.6665C37.4117 26.6665 36.6665 27.4117 36.6665 28.3334V34.9999C36.6665 35.92 35.92 36.6665 34.9999 36.6665H28.3334C27.4117 36.6665 26.6665 37.4117 26.6665 38.3334C26.6665 39.255 27.4117 39.9999 28.3334 39.9999H34.9999C37.7566 39.9999 39.9999 37.7566 39.9999 34.9999V28.3334C39.9999 27.4117 39.255 26.6665 38.3334 26.6665Z" fill="black"/>
<path d="M11.6666 36.6665H5C4.0799 36.6665 3.33344 35.92 3.33344 34.9999V28.3334C3.33344 27.4117 2.5882 26.6665 1.66656 26.6665C0.744934 26.6665 0 27.4117 0 28.3334V34.9999C0 37.7566 2.24335 39.9999 5 39.9999H11.6666C12.5882 39.9999 13.3334 39.255 13.3334 38.3334C13.3334 37.4117 12.5882 36.6665 11.6666 36.6665Z" fill="black"/>
<path d="M34.9999 0H28.3334C27.4117 0 26.6665 0.744934 26.6665 1.66656C26.6665 2.5882 27.4117 3.33344 28.3334 3.33344H34.9999C35.92 3.33344 36.6665 4.0799 36.6665 5V11.6666C36.6665 12.5882 37.4117 13.3334 38.3334 13.3334C39.255 13.3334 39.9999 12.5882 39.9999 11.6666V5C39.9999 2.24335 37.7566 0 34.9999 0Z" fill="black"/>
<path d="M8.3335 12.9166V27.0835C8.3335 29.6119 10.3882 31.6666 12.9166 31.6666H27.0835C29.6119 31.6666 31.6666 29.6119 31.6666 27.0835V12.9166C31.6666 10.3882 29.6119 8.3335 27.0835 8.3335H12.9166C10.3882 8.3335 8.3335 10.3882 8.3335 12.9166Z" fill="url(#paint0_linear_1_3323)"/>
</g>
<defs>
<linearGradient id="paint0_linear_1_3323" x1="33.7989" y1="-2.71238" x2="-28.4654" y2="36.9019" gradientUnits="userSpaceOnUse">
<stop stop-color="#00FFDD"/>
<stop offset="1" stop-color="#00D4FF"/>
</linearGradient>
<clipPath id="clip0_1_3323">
<rect width="40" height="40" fill="white"/>
</clipPath>
</defs>
</svg>
