<svg width="40" height="40" viewBox="0 0 40 40" fill="none" xmlns="http://www.w3.org/2000/svg">
<g clip-path="url(#clip0_1_3293)">
<path d="M38.5714 27.5403V12.4597C39.4213 11.9639 40 11.0525 40 10C40 8.42494 38.7186 7.14286 37.1429 7.14286C36.4935 7.14286 35.9011 7.36895 35.4209 7.73516L22.8195 2.48457C22.6345 1.0866 21.4481 0 20 0C18.5519 0 17.3655 1.0866 17.1805 2.48457L4.57912 7.73516C4.09886 7.36895 3.50647 7.14286 2.85714 7.14286C1.28139 7.14286 0 8.42494 0 10C0 11.0525 0.5787 11.9639 1.42857 12.4597V27.5403C0.5787 28.0361 0 28.9475 0 30C0 31.5751 1.28139 32.8571 2.85714 32.8571C3.50647 32.8571 4.09886 32.6311 4.57912 32.2648L17.1805 37.5154C17.3655 38.9134 18.5519 40 20 40C21.4481 40 22.6345 38.9134 22.8195 37.5154L35.4209 32.2648C35.9011 32.6311 36.4935 32.8571 37.1429 32.8571C38.7186 32.8571 40 31.5751 40 30C40 28.9475 39.4213 28.0361 38.5714 27.5403ZM34.3235 29.6267L21.7221 34.8781C21.2417 34.5118 20.6493 34.2857 20 34.2857C19.3507 34.2857 18.7583 34.5118 18.2779 34.8781L5.67653 29.6267C5.5583 28.7338 5.03235 27.9759 4.28571 27.5403V12.4597C5.03235 12.0241 5.5583 11.2662 5.67653 10.3733L18.2779 5.1219C18.7583 5.48819 19.3507 5.71429 20 5.71429C20.6493 5.71429 21.2417 5.48819 21.7221 5.1219L34.3235 10.3733C34.4417 11.2662 34.9677 12.0241 35.7143 12.4597V27.5403C34.9677 27.9759 34.4417 28.7338 34.3235 29.6267Z" fill="black"/>
<path d="M20.7144 19.0358V31.4286L30.5623 27.0271C31.0882 26.8025 31.4286 26.2856 31.4286 25.7143V14.2857C31.4286 14.2819 31.427 14.2785 31.427 14.2747L20.7144 19.0358Z" fill="url(#paint0_linear_1_3293)"/>
<path d="M20.5626 8.68719C20.2055 8.53233 19.7953 8.53233 19.4382 8.68719C19.4382 8.68719 9.36278 13.022 9.32275 13.0439L20.0004 17.7894L30.6781 13.0439C30.6381 13.022 20.5626 8.68719 20.5626 8.68719Z" fill="url(#paint1_linear_1_3293)"/>
<path d="M8.57129 14.2857V25.7143C8.57129 26.2856 8.91169 26.8025 9.43764 27.0271L19.2856 31.4286V19.0358L8.57295 14.2747C8.57295 14.2785 8.57129 14.2819 8.57129 14.2857Z" fill="url(#paint2_linear_1_3293)"/>
</g>
<defs>
<linearGradient id="paint0_linear_1_3293" x1="32.4077" y1="6.154" x2="-2.27893" y2="19.938" gradientUnits="userSpaceOnUse">
<stop stop-color="#00FFDD"/>
<stop offset="1" stop-color="#00D4FF"/>
</linearGradient>
<linearGradient id="paint1_linear_1_3293" x1="32.6296" y1="4.20706" x2="7.39461" y2="41.4005" gradientUnits="userSpaceOnUse">
<stop stop-color="#00FFDD"/>
<stop offset="1" stop-color="#00D4FF"/>
</linearGradient>
<linearGradient id="paint2_linear_1_3293" x1="20.2647" y1="6.154" x2="-14.422" y2="19.938" gradientUnits="userSpaceOnUse">
<stop stop-color="#00FFDD"/>
<stop offset="1" stop-color="#00D4FF"/>
</linearGradient>
<clipPath id="clip0_1_3293">
<rect width="40" height="40" fill="white"/>
</clipPath>
</defs>
</svg>
