<svg width="251" height="53" viewBox="0 0 251 53" fill="none" xmlns="http://www.w3.org/2000/svg">
<g clip-path="url(#clip0_2203_5485)">
<path d="M36.0342 43.4242C30.8876 43.4783 26.524 41.4531 23.7455 37.7214C20.273 33.0581 19.6844 26.2238 22.0903 18.4796C22.1956 18.1421 22.012 17.7937 21.7041 17.6749C13.7655 14.5778 7.15262 17.3725 2.58655 25.7594C2.51904 25.8836 2.49204 26.0294 2.51364 26.1779C4.4875 38.5044 15.5125 47.615 25.1685 52.0299C25.1712 52.0299 25.1739 52.0299 25.1766 52.0299C25.3494 52.1055 25.5466 52.1001 25.6951 52.0353C29.4187 50.4691 33.361 47.7365 36.5095 44.5367C36.9199 44.1209 36.6175 43.4161 36.0342 43.4215V43.4242ZM3.84215 26.1914C7.96539 18.755 13.5792 16.2168 20.5403 18.6443C17.3271 24.9547 15.8932 30.4632 16.1606 35.4694C16.4198 40.3406 18.3478 44.7825 22.0309 48.9516C13.8033 44.2721 5.57299 36.3686 3.84215 26.1914ZM25.5655 50.6581C20.3486 45.903 17.7672 41.0453 17.4675 35.4019C17.2839 31.9483 17.9643 28.222 19.5305 24.1122C19.3414 25.6757 19.2793 27.1878 19.3549 28.6351C19.5575 32.4397 20.678 35.8042 22.6924 38.5098C25.4385 42.1956 29.578 44.3585 34.4708 44.6933C31.7652 47.2019 28.6005 49.3242 25.5655 50.6608V50.6581Z" fill="url(#paint0_linear_2203_5485)"/>
<path d="M13.586 14.3211C19.3591 13.646 25.5723 16.5515 31.078 22.5082C31.078 22.5082 31.0834 22.5109 31.0861 22.5136C31.3238 22.762 31.7072 22.7836 31.9691 22.573C36.0168 19.3327 37.9474 15.4687 37.7152 11.0862C37.564 8.25639 36.492 5.19163 34.5262 1.97297C34.4506 1.84876 34.3372 1.75425 34.1995 1.70294C22.5372 -2.74972 9.13603 2.24299 0.484515 8.3995C0.341403 8.49941 0.238795 8.66682 0.214493 8.85044C-0.00152533 10.5408 -0.0528296 12.3688 0.0470787 14.2401C0.18479 16.808 0.608725 19.4623 1.29998 21.9654C1.4539 22.5271 2.21536 22.6216 2.50158 22.1112C5.02899 17.6289 8.96322 14.8611 13.5833 14.3184L13.586 14.3211ZM33.5218 2.85054C35.2985 5.80998 36.2679 8.60202 36.4056 11.1591C36.6054 14.8881 35.0258 18.2256 31.7099 21.0851C24.1169 9.39318 15.6517 4.99722 4.72387 7.2195C12.8893 2.43741 23.8468 -0.740758 33.5218 2.85054ZM2.18836 20.1266C1.36749 16.5272 1.11367 12.728 1.4728 9.42828C11.9875 6.08811 20.1934 8.56691 27.4516 17.4479C22.8883 14.0322 18.0495 12.4768 13.4321 13.0169C8.86871 13.5515 4.92368 16.0573 2.18836 20.1239V20.1266Z" fill="url(#paint1_linear_2203_5485)"/>
<path d="M50.7534 10.7686C50.6913 9.6129 50.6076 8.82713 50.6076 8.82713C50.5887 8.65162 50.4861 8.4761 50.3538 8.37619C47.1351 5.93249 42.7959 3.88572 38.4539 2.75973C37.8895 2.61392 37.4278 3.22417 37.7248 3.72911C40.3441 8.16017 40.7734 12.9504 38.9318 17.2221C36.6312 22.5605 31.0067 26.4866 23.095 28.2768C23.095 28.2768 23.0923 28.2768 23.0896 28.2795C22.771 28.3524 22.5388 28.6684 22.5928 29.014C23.8808 37.4387 29.608 41.7645 39.1533 41.5268C39.2991 41.5241 39.4368 41.4728 39.5502 41.381C50.964 32.1058 51.0099 15.602 50.7534 10.7659V10.7686ZM40.1361 17.7433C41.9561 13.5228 41.7563 8.85683 39.6042 4.45007C43.1307 5.53826 46.5492 7.2178 49.2251 9.17816C46.857 19.9548 40.6087 25.8223 29.2893 27.6666C34.5278 25.42 38.2973 22.0069 40.1361 17.7406V17.7433ZM38.8994 40.2253C30.3964 40.3738 25.3929 36.7798 24.0131 29.5378C37.9219 28.8088 45.9605 23.6838 49.5059 13.1259C49.5113 19.4147 48.2881 32.4487 38.8994 40.2253Z" fill="url(#paint2_linear_2203_5485)"/>
</g>
<path d="M62.8987 8.62219H71.564C74.0945 8.62219 76.2924 8.8944 78.1575 9.43882C80.0226 9.98323 81.5651 10.7646 82.785 11.7828C84.015 12.791 84.9274 14.021 85.5222 15.4728C86.1271 16.9145 86.4296 18.5376 86.4296 20.3423C86.4296 22.0562 86.1322 23.644 85.5374 25.1059C84.9425 26.5577 84.0352 27.8179 82.8153 28.8866C81.5954 29.9451 80.0529 30.7769 78.1877 31.3818C76.3226 31.9766 74.1248 32.274 71.5943 32.274L62.8987 32.2589V8.62219ZM72.7436 28.1153C74.1752 28.1153 75.4304 27.9338 76.5091 27.5709C77.5879 27.1979 78.4852 26.6736 79.201 25.9981C79.9269 25.3227 80.4713 24.506 80.8342 23.5483C81.1972 22.5905 81.3786 21.5218 81.3786 20.3423C81.3786 19.1829 81.1972 18.1394 80.8342 17.2119C80.4713 16.2743 79.9269 15.4828 79.201 14.8376C78.4852 14.1823 77.5879 13.6782 76.5091 13.3253C75.4304 12.9725 74.1752 12.796 72.7436 12.796H67.6926V28.1153H72.7436ZM91.2386 8.62219H111.367V12.8263H96.0325V17.5446H109.613V21.4916H96.0325V28.0699H111.684V32.2589H91.2386V8.62219ZM117.008 8.62219H138.149V12.8263H121.801V19.0115H135.684V22.9585H121.801V32.2589H117.008V8.62219ZM142.777 8.62219H162.905V12.8263H147.571V17.5446H161.151V21.4916H147.571V28.0699H163.222V32.2589H142.777V8.62219ZM168.515 8.62219H173.309L188.039 16.3347V8.62219H192.833V32.2589H188.039V21.416L173.309 13.7488V32.2589H168.515V8.62219ZM198.08 20.2969C198.08 18.6132 198.398 17.0455 199.033 15.5937C199.668 14.1319 200.586 12.8666 201.785 11.798C202.995 10.7192 204.467 9.87233 206.201 9.25734C207.945 8.64236 209.916 8.33486 212.114 8.33486C214.04 8.33486 215.804 8.53146 217.407 8.92465C219.02 9.30775 220.517 9.89754 221.898 10.694L219.69 14.3234C219.277 14.0512 218.798 13.8093 218.254 13.5975C217.719 13.3858 217.145 13.2094 216.53 13.0683C215.925 12.917 215.295 12.8011 214.639 12.7204C213.994 12.6398 213.354 12.5995 212.719 12.5995C211.186 12.5995 209.82 12.791 208.621 13.1741C207.421 13.5471 206.408 14.0764 205.581 14.762C204.764 15.4375 204.139 16.2491 203.706 17.1967C203.282 18.1343 203.071 19.1677 203.071 20.2969C203.071 21.4664 203.292 22.5401 203.736 23.518C204.18 24.4959 204.82 25.3428 205.657 26.0586C206.504 26.7643 207.532 27.3188 208.742 27.7221C209.962 28.1153 211.338 28.3119 212.87 28.3119C213.566 28.3119 214.256 28.2615 214.942 28.1607C215.628 28.0599 216.288 27.9237 216.923 27.7524C217.568 27.5709 218.188 27.3592 218.783 27.1172C219.378 26.8652 219.932 26.593 220.447 26.3006L222.655 29.93C221.364 30.7567 219.872 31.407 218.178 31.8808C216.484 32.3446 214.685 32.5765 212.779 32.5765C210.35 32.5765 208.217 32.264 206.383 31.6389C204.548 31.0037 203.015 30.1367 201.785 29.0378C200.555 27.9288 199.628 26.6282 199.003 25.1361C198.388 23.634 198.08 22.0209 198.08 20.2969ZM227.947 8.62219H248.076V12.8263H232.741V17.5446H246.321V21.4916H232.741V28.0699H248.393V32.2589H227.947V8.62219Z" fill="white"/>
<path d="M71.1292 41.9121H69.2165C69.191 41.723 69.1387 41.5522 69.0596 41.3999C68.9806 41.2476 68.876 41.1173 68.7459 41.0092C68.6159 40.9011 68.4616 40.8188 68.2831 40.7623C68.1071 40.7034 67.912 40.6739 67.6978 40.6739C67.3178 40.6739 66.9901 40.7636 66.7147 40.9429C66.4418 41.1223 66.2314 41.3815 66.0835 41.7205C65.9381 42.0595 65.8654 42.4698 65.8654 42.9514C65.8654 43.4526 65.9394 43.8727 66.0873 44.2118C66.2378 44.5483 66.4481 44.8026 66.7185 44.9746C66.9914 45.1441 67.314 45.2289 67.6863 45.2289C67.8954 45.2289 68.0854 45.2031 68.2563 45.1515C68.4297 45.0999 68.5814 45.025 68.7115 44.9267C68.8441 44.826 68.9525 44.7044 69.0367 44.5619C69.1234 44.4169 69.1833 44.2535 69.2165 44.0717L71.1292 44.0828C71.096 44.4169 70.9953 44.7461 70.8269 45.0704C70.6612 45.3947 70.4329 45.6908 70.1422 45.9586C69.8515 46.2239 69.497 46.4352 69.0787 46.5924C68.6631 46.7497 68.1862 46.8283 67.648 46.8283C66.9391 46.8283 66.3041 46.6784 65.743 46.3787C65.1845 46.0765 64.7433 45.6367 64.4194 45.0594C64.0955 44.482 63.9336 43.7793 63.9336 42.9514C63.9336 42.121 64.0981 41.4171 64.4271 40.8397C64.7561 40.2624 65.2011 39.8238 65.7621 39.5241C66.3232 39.2243 66.9518 39.0745 67.648 39.0745C68.1224 39.0745 68.561 39.1383 68.964 39.2661C69.3669 39.3914 69.7214 39.5757 70.0274 39.8189C70.3335 40.0597 70.5821 40.3557 70.7734 40.707C70.9647 41.0584 71.0832 41.4601 71.1292 41.9121Z" fill="url(#paint3_linear_2203_5485)"/>
<path d="M79.3631 39.1777H81.4785L83.1349 42.3359H83.2038L84.8602 39.1777H86.9756L84.1104 44.2044V46.7251H82.2283V44.2044L79.3631 39.1777Z" fill="url(#paint4_linear_2203_5485)"/>
<path d="M95.31 46.7251V39.1777H98.5769C99.1635 39.1777 99.6544 39.2575 100.05 39.4172C100.448 39.5769 100.746 39.8005 100.945 40.0879C101.146 40.3754 101.247 40.7083 101.247 41.0866C101.247 41.3741 101.185 41.6308 101.06 41.8569C100.935 42.0804 100.762 42.2659 100.543 42.4133C100.324 42.5607 100.07 42.6639 99.7819 42.7229V42.7966C100.098 42.8113 100.39 42.8936 100.658 43.0435C100.928 43.1934 101.145 43.4022 101.308 43.67C101.471 43.9354 101.553 44.2498 101.553 44.6135C101.553 45.0188 101.446 45.3812 101.232 45.7006C101.017 46.0175 100.708 46.2681 100.302 46.4524C99.8966 46.6342 99.4044 46.7251 98.8255 46.7251H95.31ZM97.2036 45.2547H98.3741C98.7847 45.2547 99.0869 45.1798 99.2808 45.0299C99.4771 44.88 99.5753 44.6712 99.5753 44.4034C99.5753 44.2093 99.5281 44.0422 99.4338 43.9022C99.3394 43.7597 99.2055 43.6504 99.0321 43.5742C98.8587 43.4956 98.6508 43.4563 98.4086 43.4563H97.2036V45.2547ZM97.2036 42.2807H98.2517C98.4583 42.2807 98.6419 42.2475 98.8026 42.1812C98.9633 42.1148 99.0882 42.019 99.1775 41.8937C99.2693 41.7684 99.3152 41.6173 99.3152 41.4404C99.3152 41.1874 99.2221 40.9884 99.0359 40.8434C98.8498 40.6984 98.5986 40.626 98.2823 40.626H97.2036V42.2807Z" fill="url(#paint5_linear_2203_5485)"/>
<path d="M110.004 46.7251V39.1777H115.467V40.6591H111.898V42.207H115.187V43.6921H111.898V45.2436H115.467V46.7251H110.004Z" fill="url(#paint6_linear_2203_5485)"/>
<path d="M124.193 46.7251V39.1777H127.43C128.016 39.1777 128.522 39.2796 128.948 39.4835C129.377 39.685 129.707 39.9749 129.939 40.3533C130.171 40.7292 130.287 41.1751 130.287 41.691C130.287 42.2143 130.168 42.659 129.931 43.0251C129.694 43.3887 129.357 43.6663 128.921 43.858C128.485 44.0471 127.969 44.1417 127.372 44.1417H125.326V42.7045H127.02C127.306 42.7045 127.544 42.6688 127.736 42.5976C127.929 42.5239 128.076 42.4133 128.175 42.2659C128.275 42.1161 128.325 41.9244 128.325 41.691C128.325 41.4576 128.275 41.2648 128.175 41.1124C128.076 40.9576 127.929 40.8422 127.736 40.766C127.542 40.6874 127.303 40.6481 127.02 40.6481H126.087V46.7251H124.193ZM128.604 43.2757L130.555 46.7251H128.489L126.576 43.2757H128.604Z" fill="url(#paint7_linear_2203_5485)"/>
<path d="M143.101 41.4404C143.075 41.1702 142.962 40.9601 142.761 40.8102C142.562 40.6579 142.277 40.5817 141.907 40.5817C141.663 40.5817 141.459 40.6125 141.295 40.6739C141.132 40.7353 141.01 40.8201 140.928 40.9282C140.847 41.0338 140.804 41.1554 140.802 41.293C140.797 41.406 140.82 41.5055 140.871 41.5915C140.924 41.6775 141.001 41.7537 141.1 41.82C141.202 41.8839 141.325 41.9404 141.468 41.9895C141.61 42.0387 141.771 42.0817 141.95 42.1185L142.623 42.2659C143.01 42.347 143.352 42.4551 143.648 42.5902C143.946 42.7254 144.196 42.8863 144.398 43.073C144.602 43.2597 144.756 43.4747 144.861 43.7179C144.965 43.9612 145.019 44.2339 145.021 44.5361C145.019 45.0127 144.894 45.4218 144.646 45.7633C144.399 46.1048 144.043 46.3664 143.579 46.5482C143.118 46.73 142.56 46.8209 141.907 46.8209C141.252 46.8209 140.681 46.7263 140.194 46.5372C139.707 46.348 139.328 46.0605 139.058 45.6748C138.787 45.2891 138.648 44.8014 138.641 44.2118H140.454C140.469 44.455 140.537 44.6577 140.657 44.8198C140.776 44.982 140.941 45.1048 141.15 45.1884C141.362 45.2719 141.607 45.3137 141.884 45.3137C142.14 45.3137 142.356 45.2805 142.535 45.2142C142.716 45.1478 142.855 45.0557 142.952 44.9378C143.049 44.8198 143.098 44.6847 143.101 44.5324C143.098 44.3899 143.053 44.2683 142.963 44.1675C142.874 44.0643 142.736 43.9759 142.55 43.9022C142.366 43.826 142.132 43.756 141.846 43.6921L141.028 43.5079C140.349 43.358 139.815 43.116 139.425 42.7819C139.035 42.4453 138.841 41.9908 138.843 41.4183C138.841 40.9515 138.971 40.5424 139.234 40.1911C139.496 39.8398 139.86 39.5658 140.324 39.3693C140.788 39.1727 141.317 39.0745 141.911 39.0745C142.518 39.0745 143.045 39.174 143.491 39.373C143.94 39.5695 144.288 39.8459 144.535 40.2022C144.783 40.5584 144.909 40.9712 144.914 41.4404H143.101Z" fill="url(#paint8_linear_2203_5485)"/>
<path d="M153.518 46.7251V39.1777H158.981V40.6591H155.412V42.207H158.702V43.6921H155.412V45.2436H158.981V46.7251H153.518Z" fill="url(#paint9_linear_2203_5485)"/>
<path d="M174.819 41.9121H172.906C172.881 41.723 172.828 41.5522 172.749 41.3999C172.67 41.2476 172.566 41.1173 172.436 41.0092C172.306 40.9011 172.151 40.8188 171.973 40.7623C171.797 40.7034 171.602 40.6739 171.387 40.6739C171.007 40.6739 170.68 40.7636 170.404 40.9429C170.131 41.1223 169.921 41.3815 169.773 41.7205C169.628 42.0595 169.555 42.4698 169.555 42.9514C169.555 43.4526 169.629 43.8727 169.777 44.2118C169.927 44.5483 170.138 44.8026 170.408 44.9746C170.681 45.1441 171.004 45.2289 171.376 45.2289C171.585 45.2289 171.775 45.2031 171.946 45.1515C172.119 45.0999 172.271 45.025 172.401 44.9267C172.534 44.826 172.642 44.7044 172.726 44.5619C172.813 44.4169 172.873 44.2535 172.906 44.0717L174.819 44.0828C174.786 44.4169 174.685 44.7461 174.517 45.0704C174.351 45.3947 174.123 45.6908 173.832 45.9586C173.541 46.2239 173.187 46.4352 172.768 46.5924C172.353 46.7497 171.876 46.8283 171.338 46.8283C170.629 46.8283 169.994 46.6784 169.433 46.3787C168.874 46.0765 168.433 45.6367 168.109 45.0594C167.785 44.482 167.623 43.7793 167.623 42.9514C167.623 42.121 167.788 41.4171 168.117 40.8397C168.446 40.2624 168.891 39.8238 169.452 39.5241C170.013 39.2243 170.641 39.0745 171.338 39.0745C171.812 39.0745 172.251 39.1383 172.654 39.2661C173.057 39.3914 173.411 39.5757 173.717 39.8189C174.023 40.0597 174.272 40.3557 174.463 40.707C174.654 41.0584 174.773 41.4601 174.819 41.9121Z" fill="url(#paint10_linear_2203_5485)"/>
<path d="M188.183 39.1777H190.072V44.0459C190.072 44.6085 189.933 45.0987 189.655 45.5163C189.377 45.9316 188.99 46.2534 188.492 46.4819C187.995 46.7079 187.418 46.8209 186.76 46.8209C186.094 46.8209 185.512 46.7079 185.015 46.4819C184.518 46.2534 184.132 45.9316 183.856 45.5163C183.581 45.0987 183.443 44.6085 183.443 44.0459V39.1777H185.337V43.8874C185.337 44.1479 185.395 44.38 185.512 44.584C185.632 44.7879 185.799 44.9476 186.014 45.0631C186.228 45.1785 186.476 45.2363 186.76 45.2363C187.043 45.2363 187.29 45.1785 187.502 45.0631C187.716 44.9476 187.883 44.7879 188.003 44.584C188.123 44.38 188.183 44.1479 188.183 43.8874V39.1777Z" fill="url(#paint11_linear_2203_5485)"/>
<path d="M198.8 46.7251V39.1777H202.036C202.623 39.1777 203.129 39.2796 203.555 39.4835C203.983 39.685 204.313 39.9749 204.546 40.3533C204.778 40.7292 204.894 41.1751 204.894 41.691C204.894 42.2143 204.775 42.659 204.538 43.0251C204.301 43.3887 203.964 43.6663 203.528 43.858C203.092 44.0471 202.575 44.1417 201.979 44.1417H199.932V42.7045H201.627C201.912 42.7045 202.151 42.6688 202.342 42.5976C202.536 42.5239 202.683 42.4133 202.782 42.2659C202.881 42.1161 202.931 41.9244 202.931 41.691C202.931 41.4576 202.881 41.2648 202.782 41.1124C202.683 40.9576 202.536 40.8422 202.342 40.766C202.148 40.6874 201.91 40.6481 201.627 40.6481H200.693V46.7251H198.8ZM203.21 43.2757L205.161 46.7251H203.096L201.183 43.2757H203.21Z" fill="url(#paint12_linear_2203_5485)"/>
<path d="M215.366 39.1777V46.7251H213.473V39.1777H215.366Z" fill="url(#paint13_linear_2203_5485)"/>
<path d="M223.839 40.6591V39.1777H230.461V40.6591H228.086V46.7251H226.219V40.6591H223.839Z" fill="url(#paint14_linear_2203_5485)"/>
<path d="M238.536 39.1777H240.652L242.308 42.3359H242.377L244.033 39.1777H246.149L243.284 44.2044V46.7251H241.402V44.2044L238.536 39.1777Z" fill="url(#paint15_linear_2203_5485)"/>
<defs>
<linearGradient id="paint0_linear_2203_5485" x1="35.3916" y1="17.791" x2="-9.53745" y2="65.2691" gradientUnits="userSpaceOnUse">
<stop stop-color="#00FFDD"/>
<stop offset="1" stop-color="#00D4FF"/>
</linearGradient>
<linearGradient id="paint1_linear_2203_5485" x1="41.1823" y1="-10.7559" x2="-25.6429" y2="59.8658" gradientUnits="userSpaceOnUse">
<stop stop-color="#00FFDD"/>
<stop offset="1" stop-color="#00D4FF"/>
</linearGradient>
<linearGradient id="paint2_linear_2203_5485" x1="60.6497" y1="-0.890973" x2="-6.2051" y2="69.7631" gradientUnits="userSpaceOnUse">
<stop stop-color="#00FFDD"/>
<stop offset="1" stop-color="#00D4FF"/>
</linearGradient>
<linearGradient id="paint3_linear_2203_5485" x1="262.8" y1="35.4038" x2="259.758" y2="80.886" gradientUnits="userSpaceOnUse">
<stop stop-color="#00FFDD"/>
<stop offset="1" stop-color="#00D4FF"/>
</linearGradient>
<linearGradient id="paint4_linear_2203_5485" x1="262.8" y1="35.4038" x2="259.758" y2="80.886" gradientUnits="userSpaceOnUse">
<stop stop-color="#00FFDD"/>
<stop offset="1" stop-color="#00D4FF"/>
</linearGradient>
<linearGradient id="paint5_linear_2203_5485" x1="262.8" y1="35.4038" x2="259.758" y2="80.886" gradientUnits="userSpaceOnUse">
<stop stop-color="#00FFDD"/>
<stop offset="1" stop-color="#00D4FF"/>
</linearGradient>
<linearGradient id="paint6_linear_2203_5485" x1="262.8" y1="35.4038" x2="259.758" y2="80.886" gradientUnits="userSpaceOnUse">
<stop stop-color="#00FFDD"/>
<stop offset="1" stop-color="#00D4FF"/>
</linearGradient>
<linearGradient id="paint7_linear_2203_5485" x1="262.8" y1="35.4038" x2="259.758" y2="80.886" gradientUnits="userSpaceOnUse">
<stop stop-color="#00FFDD"/>
<stop offset="1" stop-color="#00D4FF"/>
</linearGradient>
<linearGradient id="paint8_linear_2203_5485" x1="262.8" y1="35.4038" x2="259.758" y2="80.886" gradientUnits="userSpaceOnUse">
<stop stop-color="#00FFDD"/>
<stop offset="1" stop-color="#00D4FF"/>
</linearGradient>
<linearGradient id="paint9_linear_2203_5485" x1="262.8" y1="35.4038" x2="259.758" y2="80.886" gradientUnits="userSpaceOnUse">
<stop stop-color="#00FFDD"/>
<stop offset="1" stop-color="#00D4FF"/>
</linearGradient>
<linearGradient id="paint10_linear_2203_5485" x1="262.8" y1="35.4038" x2="259.758" y2="80.886" gradientUnits="userSpaceOnUse">
<stop stop-color="#00FFDD"/>
<stop offset="1" stop-color="#00D4FF"/>
</linearGradient>
<linearGradient id="paint11_linear_2203_5485" x1="262.8" y1="35.4038" x2="259.758" y2="80.886" gradientUnits="userSpaceOnUse">
<stop stop-color="#00FFDD"/>
<stop offset="1" stop-color="#00D4FF"/>
</linearGradient>
<linearGradient id="paint12_linear_2203_5485" x1="262.8" y1="35.4038" x2="259.758" y2="80.886" gradientUnits="userSpaceOnUse">
<stop stop-color="#00FFDD"/>
<stop offset="1" stop-color="#00D4FF"/>
</linearGradient>
<linearGradient id="paint13_linear_2203_5485" x1="262.8" y1="35.4038" x2="259.758" y2="80.886" gradientUnits="userSpaceOnUse">
<stop stop-color="#00FFDD"/>
<stop offset="1" stop-color="#00D4FF"/>
</linearGradient>
<linearGradient id="paint14_linear_2203_5485" x1="262.8" y1="35.4038" x2="259.758" y2="80.886" gradientUnits="userSpaceOnUse">
<stop stop-color="#00FFDD"/>
<stop offset="1" stop-color="#00D4FF"/>
</linearGradient>
<linearGradient id="paint15_linear_2203_5485" x1="262.8" y1="35.4038" x2="259.758" y2="80.886" gradientUnits="userSpaceOnUse">
<stop stop-color="#00FFDD"/>
<stop offset="1" stop-color="#00D4FF"/>
</linearGradient>
<clipPath id="clip0_2203_5485">
<rect width="50.8155" height="52.0873" fill="white" transform="translate(0 0.000244141)"/>
</clipPath>
</defs>
</svg>
