<svg width="24" height="24" viewBox="0 0 24 24" fill="none" xmlns="http://www.w3.org/2000/svg">
<path fill-rule="evenodd" clip-rule="evenodd" d="M7.77181 0H16.6234C20.6966 0 23.9997 3.30311 23.9997 7.3763V16.2279C23.9997 20.3011 20.6966 23.6042 16.6234 23.6042H7.77181C3.69862 23.6042 0.395508 20.3011 0.395508 16.2279V7.3763C0.395508 3.30311 3.69862 0 7.77181 0ZM16.6236 21.3893C19.4708 21.3893 21.787 19.0732 21.787 16.2259V7.37435C21.787 4.5271 19.4708 2.21094 16.6236 2.21094H7.77199C4.92474 2.21094 2.60858 4.5271 2.60858 7.37435V16.2259C2.60858 19.0732 4.92474 21.3893 7.77199 21.3893H16.6236Z" fill="white"/>
<path fill-rule="evenodd" clip-rule="evenodd" d="M6.29688 11.7995C6.29688 8.54063 8.93907 5.89844 12.1979 5.89844C15.4568 5.89844 18.099 8.54063 18.099 11.7995C18.099 15.0583 15.4568 17.7005 12.1979 17.7005C8.93907 17.7005 6.29688 15.0583 6.29688 11.7995ZM8.50977 11.7975C8.50977 13.8304 10.165 15.4857 12.1979 15.4857C14.2308 15.4857 15.8861 13.8304 15.8861 11.7975C15.8861 9.76314 14.2308 8.10938 12.1979 8.10938C10.165 8.10938 8.50977 9.76314 8.50977 11.7975Z" fill="white"/>
<circle cx="18.5417" cy="5.4621" r="0.786314" fill="white"/>
</svg>
