<svg width="37" height="37" viewBox="0 0 37 37" fill="none" xmlns="http://www.w3.org/2000/svg">
<g clip-path="url(#clip0_2203_5419)">
<path d="M25.5964 30.8456C21.9405 30.8839 18.8409 29.4454 16.8672 26.7946C14.4006 23.4821 13.9825 18.6275 15.6915 13.1264C15.7663 12.8867 15.6358 12.6393 15.4172 12.5549C9.77805 10.3548 5.0807 12.34 1.83724 18.2976C1.78929 18.3858 1.77011 18.4894 1.78545 18.5949C3.18756 27.3508 11.019 33.8224 17.8781 36.9584C17.88 36.9584 17.8819 36.9584 17.8838 36.9584C18.0066 37.0122 18.1466 37.0083 18.2521 36.9623C20.8971 35.8498 23.6975 33.9087 25.9339 31.6358C26.2255 31.3404 26.0107 30.8398 25.5964 30.8436V30.8456ZM2.72914 18.6044C5.65804 13.3221 9.6457 11.5191 14.5905 13.2434C12.308 17.726 11.2895 21.6388 11.4794 25.1949C11.6635 28.6551 13.033 31.8104 15.6493 34.7718C9.8049 31.4478 3.95863 25.8336 2.72914 18.6044ZM18.16 35.9841C14.4543 32.6063 12.6206 29.1557 12.4077 25.147C12.2773 22.6938 12.7606 20.0468 13.8731 17.1275C13.7389 18.2381 13.6947 19.3122 13.7485 20.3403C13.8923 23.0429 14.6883 25.4328 16.1192 27.3547C18.0699 29.9728 21.0103 31.5092 24.4858 31.7471C22.5639 33.5289 20.3159 35.0365 18.16 35.986V35.9841Z" fill="url(#paint0_linear_2203_5419)"/>
<path d="M9.65056 10.1727C13.7514 9.69318 18.1649 11.757 22.0758 15.9883C22.0758 15.9883 22.0796 15.9902 22.0816 15.9921C22.2504 16.1686 22.5227 16.1839 22.7088 16.0343C25.584 13.7326 26.9554 10.9879 26.7904 7.87485C26.683 5.86471 25.9215 3.6877 24.5252 1.40136C24.4715 1.31313 24.3909 1.246 24.2931 1.20956C16.009 -1.95334 6.48958 1.59317 0.344091 5.96637C0.242434 6.03734 0.169547 6.15626 0.152285 6.28668C-0.00116097 7.4874 -0.0376043 8.78593 0.0333643 10.1152C0.131186 11.9392 0.432323 13.8247 0.923348 15.6027C1.03268 16.0017 1.57357 16.0688 1.77689 15.7063C3.5722 12.5223 6.36683 10.5563 9.64864 10.1708L9.65056 10.1727ZM23.8117 2.02473C25.0738 4.12694 25.7623 6.11022 25.8602 7.92663C26.0021 10.5755 24.88 12.9462 22.5246 14.9775C17.131 6.67221 11.1179 3.5496 3.35546 5.12817C9.1557 1.73127 16.9392 -0.526297 23.8117 2.02473ZM1.55439 14.2965C0.9713 11.7398 0.791001 9.04103 1.0461 6.69715C8.51507 4.3245 14.3441 6.08529 19.4998 12.3938C16.2583 9.96746 12.8211 8.86265 9.54123 9.24627C6.2997 9.62604 3.4974 11.406 1.55439 14.2946V14.2965Z" fill="url(#paint1_linear_2203_5419)"/>
<path d="M36.0521 7.64891C36.008 6.82798 35.9485 6.26982 35.9485 6.26982C35.9351 6.14514 35.8622 6.02047 35.7682 5.9495C33.4819 4.21365 30.3995 2.75975 27.3153 1.95992C26.9144 1.85634 26.5864 2.28982 26.7974 2.6485C28.6579 5.79606 28.9629 9.19871 27.6548 12.2331C26.0206 16.0251 22.0252 18.814 16.4053 20.0857C16.4053 20.0857 16.4034 20.0857 16.4014 20.0876C16.1751 20.1394 16.0102 20.3638 16.0485 20.6093C16.9634 26.5937 21.0317 29.6664 27.812 29.4976C27.9156 29.4957 28.0134 29.4593 28.094 29.3941C36.2017 22.8055 36.2343 11.0823 36.0521 7.64699V7.64891ZM28.5102 12.6033C29.803 9.60534 29.6611 6.29092 28.1324 3.16063C30.6374 3.93361 33.0656 5.12665 34.9664 6.51917C33.2843 14.1742 28.8459 18.3421 20.8053 19.6522C24.5264 18.0564 27.204 15.6319 28.5102 12.6014V12.6033ZM27.6317 28.5731C21.5917 28.6786 18.0376 26.1257 17.0574 20.9814C26.9374 20.4635 32.6475 16.823 35.1659 9.32338C35.1698 13.7906 34.3009 23.0491 27.6317 28.5731Z" fill="url(#paint2_linear_2203_5419)"/>
</g>
<defs>
<linearGradient id="paint0_linear_2203_5419" x1="25.1399" y1="12.6373" x2="-6.77489" y2="46.3627" gradientUnits="userSpaceOnUse">
<stop stop-color="#00FFDD"/>
<stop offset="1" stop-color="#00D4FF"/>
</linearGradient>
<linearGradient id="paint1_linear_2203_5419" x1="29.2532" y1="-7.64041" x2="-18.2151" y2="42.5248" gradientUnits="userSpaceOnUse">
<stop stop-color="#00FFDD"/>
<stop offset="1" stop-color="#00D4FF"/>
</linearGradient>
<linearGradient id="paint2_linear_2203_5419" x1="43.0818" y1="-0.633311" x2="-4.40768" y2="49.5549" gradientUnits="userSpaceOnUse">
<stop stop-color="#00FFDD"/>
<stop offset="1" stop-color="#00D4FF"/>
</linearGradient>
<clipPath id="clip0_2203_5419">
<rect width="36.0961" height="36.9995" fill="white"/>
</clipPath>
</defs>
</svg>
