<svg width="18" height="14" viewBox="0 0 18 14" fill="none" xmlns="http://www.w3.org/2000/svg">
<path d="M16.418 0.207031H1.58203C0.710789 0.207031 0 0.917047 0 1.78906V12.3359C0 13.205 0.707625 13.918 1.58203 13.918H16.418C17.287 13.918 18 13.2103 18 12.3359V1.78906C18 0.92 17.2924 0.207031 16.418 0.207031ZM16.1995 1.26172L9.03354 8.42772L1.80559 1.26172H16.1995ZM1.05469 12.1175V2.00243L6.13403 7.03821L1.05469 12.1175ZM1.80046 12.8633L6.883 7.78074L8.66391 9.54636C8.87006 9.75076 9.20275 9.75009 9.40806 9.54474L11.1445 7.80827L16.1995 12.8633H1.80046ZM16.9453 12.1175L11.8903 7.0625L16.9453 2.00745V12.1175Z" fill="white"/>
</svg>
