<svg width="18" height="19" viewBox="0 0 18 19" fill="none" xmlns="http://www.w3.org/2000/svg">
<g clip-path="url(#clip0_6280_124)">
<path d="M16.8947 12.7716C16.8649 12.7469 13.4921 10.3472 12.5814 10.4941C12.1421 10.5717 11.8913 10.8715 11.3878 11.4711C11.3068 11.5679 11.1116 11.7991 10.9609 11.9639C10.6427 11.8602 10.3323 11.7339 10.0322 11.5859C8.48279 10.8316 7.23093 9.57971 6.47662 8.03031C6.32861 7.73017 6.20229 7.41982 6.09863 7.10162C6.264 6.95031 6.49575 6.75513 6.59475 6.67188C7.19156 6.17125 7.49081 5.91981 7.56844 5.47994C7.72762 4.56925 5.31563 1.19762 5.29087 1.16725C5.18103 1.01147 5.03797 0.88202 4.87202 0.788247C4.70607 0.694474 4.52137 0.638717 4.33125 0.625C3.35362 0.625 0.5625 4.24525 0.5625 4.85556C0.5625 4.891 0.613688 8.49325 5.05575 13.0118C9.56925 17.4488 13.1715 17.5 13.2069 17.5C13.8167 17.5 17.4375 14.7089 17.4375 13.7312C17.4236 13.5411 17.3678 13.3564 17.2739 13.1905C17.18 13.0245 17.0505 12.8815 16.8947 12.7716ZM13.1445 16.3716C12.6562 16.33 9.63 15.9312 5.85 12.2181C2.11894 8.41956 1.73025 5.38825 1.69144 4.91856C2.42875 3.7613 3.3192 2.70907 4.33856 1.7905C4.36106 1.813 4.39088 1.84675 4.42913 1.89062C5.2109 2.95782 5.88436 4.10028 6.4395 5.30106C6.25897 5.48268 6.06816 5.65377 5.868 5.8135C5.55761 6.05 5.27258 6.31806 5.0175 6.61337C4.97434 6.67393 4.94361 6.74245 4.9271 6.81496C4.91059 6.88747 4.90862 6.96254 4.92131 7.03581C5.04035 7.55147 5.22267 8.05044 5.46412 8.52138C6.32919 10.2978 7.76462 11.733 9.54113 12.5978C10.012 12.8396 10.511 13.0221 11.0267 13.1412C11.1 13.1542 11.1751 13.1523 11.2476 13.1358C11.3202 13.1193 11.3887 13.0884 11.4491 13.045C11.7455 12.7889 12.0145 12.5027 12.2518 12.1911C12.4284 11.9808 12.6641 11.7001 12.7536 11.6208C13.9574 12.1754 15.1024 12.8496 16.1713 13.6334C16.218 13.6727 16.2512 13.7031 16.2731 13.7228C15.3545 14.7425 14.3021 15.6332 13.1445 16.3705V16.3716Z" fill="white"/>
<path d="M12.9375 8.5H14.0625C14.0612 7.30694 13.5866 6.16312 12.743 5.3195C11.8994 4.47588 10.7556 4.00134 9.5625 4V5.125C10.4573 5.12589 11.3153 5.48176 11.948 6.1145C12.5807 6.74724 12.9366 7.60517 12.9375 8.5Z" fill="white"/>
<path d="M15.75 8.5H16.875C16.8728 6.56129 16.1016 4.70262 14.7308 3.33175C13.3599 1.96087 11.5012 1.18973 9.5625 1.1875V2.3125C11.2029 2.31444 12.7756 2.96695 13.9356 4.12691C15.0955 5.28688 15.7481 6.85957 15.75 8.5Z" fill="white"/>
</g>
<defs>
<clipPath id="clip0_6280_124">
<rect width="18" height="18" fill="white" transform="translate(0 0.0625)"/>
</clipPath>
</defs>
</svg>
