<svg width="24" height="24" viewBox="0 0 24 24" fill="none" xmlns="http://www.w3.org/2000/svg">
<g opacity="0.35">
<path d="M12 2C9.8987 1.99843 7.85041 2.65934 6.14634 3.88875C4.44227 5.11817 3.16915 6.85351 2.50799 8.84805C1.84684 10.8426 1.8313 12.9948 2.46359 14.9987C3.09588 17.0026 4.34382 18.7561 6.02996 20.01C7.75415 21.3018 9.85054 22 12.005 22C14.1594 22 16.2558 21.3018 17.98 20.01C19.6618 18.753 20.9053 16.9985 21.5342 14.9952C22.1631 12.9919 22.1455 10.8415 21.4838 8.84879C20.8222 6.85608 19.5501 5.1222 17.8478 3.89293C16.1456 2.66367 14.0996 2.0014 12 2ZM12 6C12.5933 6 13.1733 6.17595 13.6667 6.50559C14.16 6.83524 14.5445 7.30377 14.7716 7.85195C14.9987 8.40013 15.0581 9.00333 14.9423 9.58527C14.8266 10.1672 14.5408 10.7018 14.1213 11.1213C13.7017 11.5409 13.1672 11.8266 12.5852 11.9424C12.0033 12.0581 11.4001 11.9987 10.8519 11.7716C10.3037 11.5446 9.8352 11.1601 9.50556 10.6667C9.17591 10.1734 8.99996 9.59335 8.99996 9C9.00234 8.20508 9.31917 7.4434 9.88127 6.88131C10.4434 6.31921 11.205 6.00238 12 6ZM12 20C9.93306 19.9981 7.94734 19.1952 6.45996 17.76C6.90233 16.6521 7.66621 15.702 8.65324 15.032C9.64027 14.362 10.8053 14.0028 11.9982 14.0007C13.1911 13.9985 14.3574 14.3535 15.3469 15.0199C16.3363 15.6864 17.1036 16.6337 17.55 17.74C16.066 19.1891 14.0741 20.0002 12 20Z" fill="white"/>
</g>
</svg>
